<svg width="44" height="34" viewBox="0 0 44 34" fill="none" xmlns="http://www.w3.org/2000/svg">
<path d="M40 1C37.78 0.3 35.34 0 33 0C29.1 0 24.9 0.8 22 3C19.1 0.8 14.9 0 11 0C7.1 0 2.9 0.8 0 3V32.3C0 32.8 0.5 33.3 1 33.3C1.2 33.3 1.3 33.2 1.5 33.2C4.2 31.9 8.1 31 11 31C14.9 31 19.1 31.8 22 34C24.7 32.3 29.6 31 33 31C36.3 31 39.7 31.6 42.5 33.1C42.7 33.2 42.8 33.2 43 33.2C43.5 33.2 44 32.7 44 32.2V3C42.8 2.1 41.5 1.5 40 1ZM40 28C37.8 27.3 35.4 27 33 27C29.6 27 24.7 28.3 22 30V7C24.7 5.3 29.6 4 33 4C35.4 4 37.8 4.3 40 5V28Z" fill="white"/>
<path d="M33 12C34.76 12 36.46 12.18 38 12.52V9.48C36.42 9.18 34.72 9 33 9C29.6 9 26.52 9.58 24 10.66V13.98C26.26 12.7 29.4 12 33 12Z" fill="white"/>
<path d="M24 15.98V19.3C26.26 18.02 29.4 17.32 33 17.32C34.76 17.32 36.46 17.5 38 17.84V14.8C36.42 14.5 34.72 14.32 33 14.32C29.6 14.32 26.52 14.92 24 15.98Z" fill="white"/>
<path d="M33 19.66C29.6 19.66 26.52 20.24 24 21.32V24.64C26.26 23.36 29.4 22.66 33 22.66C34.76 22.66 36.46 22.84 38 23.18V20.14C36.42 19.82 34.72 19.66 33 19.66Z" fill="white"/>
</svg>
